<svg width="42" height="31" viewBox="0 0 42 31" fill="none" xmlns="http://www.w3.org/2000/svg">
<g clip-path="url(#clip0_1_24045)">
<path d="M0 20.6667C0 26.3364 4.74156 31.0001 10.5291 31.0001H31.4477C37.2352 31.0001 42 26.3592 42 20.6667H0Z" fill="#17BAB1"/>
<path d="M42 20.6666C42 14.997 37.2584 10.3333 31.4477 10.3333H10.5291C4.74156 10.3333 0 14.9741 0 20.6666H42Z" fill="#A0D9D9"/>
<path d="M20.9882 0C15.1775 0 10.4824 4.61799 10.4824 10.3333H31.494C31.494 4.61799 26.7757 0 20.9882 0Z" fill="#80B0D1"/>
<path d="M20.9882 20.6666C26.799 20.6666 31.494 16.0486 31.494 10.3333H10.4824C10.4824 16.0257 15.1775 20.6666 20.9882 20.6666Z" fill="#0567A5"/>
<path d="M20.9883 20.6666C20.9883 26.3819 25.6834 30.9999 31.4941 30.9999V10.3333C25.6834 10.3333 20.9883 14.9512 20.9883 20.6666Z" fill="#022A44"/>
<path d="M42 20.6666C42 14.9512 37.3049 10.3333 31.4941 10.3333V30.9999C37.2816 30.9771 42 26.3591 42 20.6666Z" fill="#0D3759"/>
</g>
<defs>
<clipPath id="clip0_1_24045">
<rect width="42" height="31" fill="white"/>
</clipPath>
</defs>
</svg>
