<svg width="22" height="22" viewBox="0 0 22 22" fill="none" xmlns="http://www.w3.org/2000/svg">
<path d="M5.13333 16.1333H0.733333C0.53887 16.1333 0.35226 16.2106 0.214762 16.3481C0.077264 16.4856 0 16.6722 0 16.8667V21.2667C0 21.4611 0.077264 21.6477 0.214762 21.7852C0.35226 21.9227 0.53887 22 0.733333 22H5.13333C5.3278 22 5.51441 21.9227 5.65191 21.7852C5.7894 21.6477 5.86667 21.4611 5.86667 21.2667V16.8667C5.86667 16.6722 5.7894 16.4856 5.65191 16.3481C5.51441 16.2106 5.3278 16.1333 5.13333 16.1333ZM1.46667 17.6H4.4V20.5333H1.46667V17.6ZM13.2 16.1333H8.8C8.60554 16.1333 8.41893 16.2106 8.28143 16.3481C8.14393 16.4856 8.06667 16.6722 8.06667 16.8667V21.2667C8.06667 21.4611 8.14393 21.6477 8.28143 21.7852C8.41893 21.9227 8.60554 22 8.8 22H13.2C13.3945 22 13.5811 21.9227 13.7186 21.7852C13.8561 21.6477 13.9333 21.4611 13.9333 21.2667V16.8667C13.9333 16.6722 13.8561 16.4856 13.7186 16.3481C13.5811 16.2106 13.3945 16.1333 13.2 16.1333ZM9.53333 17.6H12.4667V20.5333H9.53333V17.6ZM21.2667 16.1333H16.8667C16.6722 16.1333 16.4856 16.2106 16.3481 16.3481C16.2106 16.4856 16.1333 16.6722 16.1333 16.8667V21.2667C16.1333 21.4611 16.2106 21.6477 16.3481 21.7852C16.4856 21.9227 16.6722 22 16.8667 22H21.2667C21.4611 22 21.6477 21.9227 21.7852 21.7852C21.9227 21.6477 22 21.4611 22 21.2667V16.8667C22 16.6722 21.9227 16.4856 21.7852 16.3481C21.6477 16.2106 21.4611 16.1333 21.2667 16.1333ZM17.6 17.6H20.5333V20.5333H17.6V17.6ZM5.13333 8.06667H0.733333C0.53887 8.06667 0.35226 8.14393 0.214762 8.28143C0.077264 8.41893 0 8.60554 0 8.8V13.2C0 13.3945 0.077264 13.5811 0.214762 13.7186C0.35226 13.8561 0.53887 13.9333 0.733333 13.9333H5.13333C5.3278 13.9333 5.51441 13.8561 5.65191 13.7186C5.7894 13.5811 5.86667 13.3945 5.86667 13.2V8.8C5.86667 8.60554 5.7894 8.41893 5.65191 8.28143C5.51441 8.14393 5.3278 8.06667 5.13333 8.06667ZM1.46667 9.53333H4.4V12.4667H1.46667V9.53333ZM13.2 8.06667H8.8C8.60554 8.06667 8.41893 8.14393 8.28143 8.28143C8.14393 8.41893 8.06667 8.60554 8.06667 8.8V13.2C8.06667 13.3945 8.14393 13.5811 8.28143 13.7186C8.41893 13.8561 8.60554 13.9333 8.8 13.9333H13.2C13.3945 13.9333 13.5811 13.8561 13.7186 13.7186C13.8561 13.5811 13.9333 13.3945 13.9333 13.2V8.8C13.9333 8.60554 13.8561 8.41893 13.7186 8.28143C13.5811 8.14393 13.3945 8.06667 13.2 8.06667ZM9.53333 9.53333H12.4667V12.4667H9.53333V9.53333ZM21.2667 8.06667H16.8667C16.6722 8.06667 16.4856 8.14393 16.3481 8.28143C16.2106 8.41893 16.1333 8.60554 16.1333 8.8V13.2C16.1333 13.3945 16.2106 13.5811 16.3481 13.7186C16.4856 13.8561 16.6722 13.9333 16.8667 13.9333H21.2667C21.4611 13.9333 21.6477 13.8561 21.7852 13.7186C21.9227 13.5811 22 13.3945 22 13.2V8.8C22 8.60554 21.9227 8.41893 21.7852 8.28143C21.6477 8.14393 21.4611 8.06667 21.2667 8.06667ZM17.6 9.53333H20.5333V12.4667H17.6V9.53333ZM5.13333 0H0.733333C0.53887 0 0.35226 0.0772629 0.214762 0.214762C0.077264 0.352259 0 0.53887 0 0.733334V5.13333C0 5.3278 0.077264 5.51441 0.214762 5.65191C0.35226 5.7894 0.53887 5.86667 0.733333 5.86667H5.13333C5.3278 5.86667 5.51441 5.7894 5.65191 5.65191C5.7894 5.51441 5.86667 5.3278 5.86667 5.13333V0.733334C5.86667 0.53887 5.7894 0.352259 5.65191 0.214762C5.51441 0.0772629 5.3278 0 5.13333 0ZM1.46667 1.46667H4.4V4.4H1.46667V1.46667ZM13.2 0H8.8C8.60554 0 8.41893 0.0772629 8.28143 0.214762C8.14393 0.352259 8.06667 0.53887 8.06667 0.733334V5.13333C8.06667 5.3278 8.14393 5.51441 8.28143 5.65191C8.41893 5.7894 8.60554 5.86667 8.8 5.86667H13.2C13.3945 5.86667 13.5811 5.7894 13.7186 5.65191C13.8561 5.51441 13.9333 5.3278 13.9333 5.13333V0.733334C13.9333 0.53887 13.8561 0.352259 13.7186 0.214762C13.5811 0.0772629 13.3945 0 13.2 0ZM9.53333 1.46667H12.4667V4.4H9.53333V1.46667ZM21.2667 0H16.8667C16.6722 0 16.4856 0.0772629 16.3481 0.214762C16.2106 0.352259 16.1333 0.53887 16.1333 0.733334V5.13333C16.1333 5.3278 16.2106 5.51441 16.3481 5.65191C16.4856 5.7894 16.6722 5.86667 16.8667 5.86667H21.2667C21.4611 5.86667 21.6477 5.7894 21.7852 5.65191C21.9227 5.51441 22 5.3278 22 5.13333V0.733334C22 0.53887 21.9227 0.352259 21.7852 0.214762C21.6477 0.0772629 21.4611 0 21.2667 0ZM17.6 1.46667H20.5333V4.4H17.6V1.46667Z" fill="white"/>
<path d="M17.6 9.53333H20.5333V12.4667H17.6V9.53333Z" fill="white"/>
<path d="M9.53333 9.53333H12.4667V12.4667H9.53333V9.53333Z" fill="white"/>
<path d="M1.46667 9.53333H4.4V12.4667H1.46667V9.53333Z" fill="white"/>
<path d="M1.46667 1.46667H4.4V4.4H1.46667V1.46667Z" fill="white"/>
<path d="M9.53333 1.46667H12.4667V4.4H9.53333V1.46667Z" fill="white"/>
<path d="M17.6 1.46667H20.5333V4.4H17.6V1.46667Z" fill="white"/>
<path d="M17.6 17.6H20.5333V20.5333H17.6V17.6Z" fill="white"/>
<path d="M9.53333 17.6H12.4667V20.5333H9.53333V17.6Z" fill="white"/>
<path d="M1.46667 17.6H4.4V20.5333H1.46667V17.6Z" fill="white"/>
</svg>
